<svg width="256" height="256" viewBox="0 0 256 256" fill="none" xmlns="http://www.w3.org/2000/svg">
<path d="M0 57.5377V10C0 4.47715 4.47715 0 10 0H205.812C212.939 0 216.508 8.61714 211.469 13.6569L157.588 67.5377H10C4.47715 67.5377 0 63.0605 0 57.5377Z" fill="black"/>
<path d="M114.492 109.346L13.6569 210.182C8.61714 215.222 0 211.652 0 204.525V119.346C0 113.824 4.47716 109.346 10 109.346H114.492Z" fill="black"/>
<path d="M198.462 256H246C251.523 256 256 251.523 256 246V50.1881C256 43.0608 247.383 39.4915 242.343 44.5312L188.462 98.4121V246C188.462 251.523 192.939 256 198.462 256Z" fill="black"/>
<path d="M146.654 141.508L45.8179 242.343C40.7782 247.383 44.3476 256 51.4748 256H136.654C142.176 256 146.654 251.523 146.654 246V141.508Z" fill="black"/>
</svg>
